<svg id="Rooms" xmlns="http://www.w3.org/2000/svg" width="18" height="18" viewBox="0 0 18 18">
  <g id="Rectangle_54" data-name="Rectangle 54" fill="rgba(255,255,255,0)" stroke="#000" stroke-width="1">
    <rect width="18" height="18" stroke="none"/>
    <rect x="0.5" y="0.5" width="17" height="17" fill="none"/>
  </g>
  <g id="Rectangle_55" data-name="Rectangle 55" transform="translate(2 8)" fill="none" stroke="#000" stroke-width="1">
    <path d="M2,0H12a2,2,0,0,1,2,2V5a0,0,0,0,1,0,0H0A0,0,0,0,1,0,5V2A2,2,0,0,1,2,0Z" stroke="none"/>
    <path d="M2,.5H12A1.5,1.5,0,0,1,13.5,2V4a.5.5,0,0,1-.5.5H1A.5.5,0,0,1,.5,4V2A1.5,1.5,0,0,1,2,.5Z" fill="none"/>
  </g>
  <g id="Rectangle_56" data-name="Rectangle 56" transform="translate(4 4)" fill="none" stroke="#000" stroke-width="1">
    <path d="M2,0H8a2,2,0,0,1,2,2V5a0,0,0,0,1,0,0H0A0,0,0,0,1,0,5V2A2,2,0,0,1,2,0Z" stroke="none"/>
    <path d="M2,.5H8A1.5,1.5,0,0,1,9.5,2V4a.5.5,0,0,1-.5.5H1A.5.5,0,0,1,.5,4V2A1.5,1.5,0,0,1,2,.5Z" fill="none"/>
  </g>
  <line id="Line_5" data-name="Line 5" x1="13" transform="translate(2.5 10.5)" fill="none" stroke="#000" stroke-width="1"/>
  <g id="Rectangle_57" data-name="Rectangle 57" transform="translate(6 6)" fill="none" stroke="#000" stroke-width="1">
    <rect width="6" height="2" rx="1" stroke="none"/>
    <rect x="0.5" y="0.5" width="5" height="1" rx="0.5" fill="none"/>
  </g>
  <line id="Line_6" data-name="Line 6" y2="2" transform="translate(2.5 12.5)" fill="none" stroke="#000" stroke-width="1"/>
  <line id="Line_7" data-name="Line 7" y2="2" transform="translate(15.5 12.5)" fill="none" stroke="#000" stroke-width="1"/>
</svg>
