<svg id="Parking" xmlns="http://www.w3.org/2000/svg" width="18" height="18" viewBox="0 0 18 18">
  <g id="Rectangle_39" data-name="Rectangle 39" fill="rgba(255,255,255,0)" stroke="#000" stroke-width="1">
    <rect width="18" height="18" stroke="none"/>
    <rect x="0.5" y="0.5" width="17" height="17" fill="none"/>
  </g>
  <path id="Path_31" data-name="Path 31" d="M46.742,23.522a10.177,10.177,0,0,0-1.525-2.378,10.028,10.028,0,0,0-4.693-.944,10.005,10.005,0,0,0-4.682.944,9.91,9.91,0,0,0-1.536,2.378,11.171,11.171,0,0,0-.911,4.152.508.508,0,0,0,.307.5q.207.085.572.2v1.274a.389.389,0,0,0,.36.421H36.35a.4.4,0,0,0,.36-.421V28.88a30.509,30.509,0,0,0,3.8.216,28.474,28.474,0,0,0,3.633-.2v.762a.389.389,0,0,0,.36.421h1.716a.4.4,0,0,0,.36-.421V28.425a7.355,7.355,0,0,0,.731-.25.519.519,0,0,0,.307-.5A10.629,10.629,0,0,0,46.742,23.522Zm-9.936,3.288a1.134,1.134,0,0,1-1.472.705,1.227,1.227,0,0,1-.858-1.456,1.134,1.134,0,0,1,1.472-.705A1.24,1.24,0,0,1,36.806,26.809Zm3.718-2.287a20.006,20.006,0,0,1-4.7-.592.339.339,0,0,1-.222-.455,3.112,3.112,0,0,1,.614-.99,3.6,3.6,0,0,1,1.133-.9,7.068,7.068,0,0,1,3.178-.569,7.094,7.094,0,0,1,3.189.569,3.988,3.988,0,0,1,1.133.9,3.319,3.319,0,0,1,.614.99.339.339,0,0,1-.222.455A19.6,19.6,0,0,1,40.524,24.523ZM45.778,27.5a1.125,1.125,0,0,1-1.472-.705,1.227,1.227,0,0,1,.858-1.456,1.125,1.125,0,0,1,1.472.705A1.227,1.227,0,0,1,45.778,27.5Z" transform="translate(-31.395 -16.412)"/>
</svg>
