<svg id="Mony" xmlns="http://www.w3.org/2000/svg" width="18" height="18" viewBox="0 0 18 18">
  <g id="Rectangle_39" data-name="Rectangle 39" fill="rgba(255,255,255,0)" stroke="#000" stroke-width="1">
    <rect width="18" height="18" stroke="none"/>
    <rect x="0.5" y="0.5" width="17" height="17" fill="none"/>
  </g>
  <path id="Path_27" data-name="Path 27" d="M9.3-14.969a2.226,2.226,0,0,0-.763-1.756,5.466,5.466,0,0,0-2.467-1.027v-4.183a4.092,4.092,0,0,1,1.243.342,4.663,4.663,0,0,1,1.169.789l.491-.581a6.417,6.417,0,0,0-1.34-.841A4.638,4.638,0,0,0,6.1-22.6V-23.5H5.388v.863a3.784,3.784,0,0,0-1.258.23,3.283,3.283,0,0,0-.99.572,2.532,2.532,0,0,0-.648.84,2.4,2.4,0,0,0-.231,1.048,2.585,2.585,0,0,0,.179,1A2.138,2.138,0,0,0,3-18.176a3.448,3.448,0,0,0,.982.594,8.16,8.16,0,0,0,1.436.431v4.221a4.264,4.264,0,0,1-1.637-.454,6.49,6.49,0,0,1-1.429-1.035l-.491.581a7,7,0,0,0,1.652,1.115,5.489,5.489,0,0,0,1.876.492v1.474H6.1v-1.459A4.435,4.435,0,0,0,7.4-12.453a3.165,3.165,0,0,0,1.017-.573,2.549,2.549,0,0,0,.658-.856A2.514,2.514,0,0,0,9.3-14.969ZM5.418-17.9a6.925,6.925,0,0,1-1.184-.387,2.519,2.519,0,0,1-.725-.469,1.439,1.439,0,0,1-.37-.566,3.959,3.959,0,0,1-.1-.677,3.158,3.158,0,0,1,.17-.752,1.921,1.921,0,0,1,.481-.618,2.321,2.321,0,0,1,.754-.424,3.194,3.194,0,0,1,.976-.171Zm3.111,2.977a1.8,1.8,0,0,1-.171.789,1.819,1.819,0,0,1-.5.625,2.631,2.631,0,0,1-.781.432,3.2,3.2,0,0,1-1,.179v-4.108a7.239,7.239,0,0,1,1.206.365,2.718,2.718,0,0,1,.759.454,1.318,1.318,0,0,1,.387.566A2.2,2.2,0,0,1,8.529-14.924Z" transform="translate(3.399 25.822)"/>
</svg>
